# xmcd CD database file
#
# Track frame offsets:
#	150
#	12377
#	29954
#	47549
#	64069
#	79985
#	95976
#	110495
#	123065
#	141969
#	165820
#	179904
#	195505
#
# Disc length: 2783 seconds
#
# Revision: 1
# Processed by: cddbd v1.5.2PL0 Copyright (c) Steve Scherf et al.
# Submitted via: Feurio! 1.68 - http://www.feurio.com
#
DISCID=b70add0d
DTITLE=Norah Jones - The Fall
DYEAR=1900
DGENRE=
TTITLE0=Chasing Pirates
TTITLE1=Even Though
TTITLE2=Light as a Feather
TTITLE3=Young Blood
TTITLE4=I Wouldn't Need You
TTITLE5=Waiting.
TTITLE6=It's Gonna Be
TTITLE7=You've Ruined Me
TTITLE8=Back to Manhatten
TTITLE9=Stuck
TTITLE10=December
TTITLE11=Tell Yer Mama
TTITLE12=Man of the Hour
EXTD=
EXTT0=
EXTT1=
EXTT2=
EXTT3=
EXTT4=
EXTT5=
EXTT6=
EXTT7=
EXTT8=
EXTT9=
EXTT10=
EXTT11=
EXTT12=
PLAYORDER=
